<svg width="88" height="88" viewBox="0 0 88 88" fill="none" xmlns="http://www.w3.org/2000/svg">
<rect width="88" height="88" rx="2" fill="#EEEEEE"/>
<path d="M51 34H37C36.2044 34 35.4413 34.3161 34.8787 34.8787C34.3161 35.4413 34 36.2044 34 37V51C34 51.7956 34.3161 52.5587 34.8787 53.1213C35.4413 53.6839 36.2044 54 37 54H51C51.1645 53.9977 51.3284 53.981 51.49 53.95L51.79 53.88H51.86H51.91L52.28 53.74L52.41 53.67C52.51 53.61 52.62 53.56 52.72 53.49C52.8535 53.3918 52.9805 53.2849 53.1 53.17L53.17 53.08C53.2682 52.9805 53.3585 52.8735 53.44 52.76L53.53 52.63C53.5998 52.5187 53.6601 52.4016 53.71 52.28C53.7374 52.232 53.7609 52.1818 53.78 52.13C53.83 52.01 53.86 51.88 53.9 51.75V51.6C53.9567 51.4046 53.9903 51.2032 54 51V37C54 36.2044 53.6839 35.4413 53.1213 34.8787C52.5587 34.3161 51.7956 34 51 34ZM37 52C36.7348 52 36.4804 51.8946 36.2929 51.7071C36.1054 51.5196 36 51.2652 36 51V46.69L39.29 43.39C39.383 43.2963 39.4936 43.2219 39.6154 43.1711C39.7373 43.1203 39.868 43.0942 40 43.0942C40.132 43.0942 40.2627 43.1203 40.3846 43.1711C40.5064 43.2219 40.617 43.2963 40.71 43.39L49.31 52H37ZM52 51C51.9991 51.1233 51.9753 51.2453 51.93 51.36C51.9071 51.4087 51.8804 51.4556 51.85 51.5C51.8232 51.5423 51.7931 51.5825 51.76 51.62L46.41 46.27L47.29 45.39C47.383 45.2963 47.4936 45.2219 47.6154 45.1711C47.7373 45.1203 47.868 45.0942 48 45.0942C48.132 45.0942 48.2627 45.1203 48.3846 45.1711C48.5064 45.2219 48.617 45.2963 48.71 45.39L52 48.69V51ZM52 45.86L50.12 44C49.5477 43.457 48.7889 43.1543 48 43.1543C47.2111 43.1543 46.4523 43.457 45.88 44L45 44.88L42.12 42C41.5477 41.457 40.7889 41.1543 40 41.1543C39.2111 41.1543 38.4523 41.457 37.88 42L36 43.86V37C36 36.7348 36.1054 36.4804 36.2929 36.2929C36.4804 36.1054 36.7348 36 37 36H51C51.2652 36 51.5196 36.1054 51.7071 36.2929C51.8946 36.4804 52 36.7348 52 37V45.86ZM45.5 38C45.2033 38 44.9133 38.088 44.6666 38.2528C44.42 38.4176 44.2277 38.6519 44.1142 38.926C44.0006 39.2001 43.9709 39.5017 44.0288 39.7926C44.0867 40.0836 44.2296 40.3509 44.4393 40.5607C44.6491 40.7704 44.9164 40.9133 45.2074 40.9712C45.4983 41.0291 45.7999 40.9994 46.074 40.8858C46.3481 40.7723 46.5824 40.58 46.7472 40.3334C46.912 40.0867 47 39.7967 47 39.5C47 39.1022 46.842 38.7206 46.5607 38.4393C46.2794 38.158 45.8978 38 45.5 38Z" fill="#1B1B1B"/>
</svg>
